<svg xmlns="http://www.w3.org/2000/svg" viewBox="0 0 54.4 8.91"><defs><style>.cls-1{fill:#fcfcfc;}.cls-2{fill:#b3b3b3;}</style></defs><g id="Layer_2" data-name="Layer 2"><g id="Layer_1-2" data-name="Layer 1"><path class="cls-1" d="M6.64,4.05H4.42A1.39,1.39,0,0,0,3,5.45V8.9A3.46,3.46,0,0,1,0,5.46C0,3.18,2.05,1.56,3.47,0A12.52,12.52,0,0,1,6.64,4.05Z"/><path class="cls-1" d="M6.83,6.84A3.3,3.3,0,0,1,4.06,8.9V6.84Z"/><path class="cls-2" d="M6.94,5.58c0,.12,0,.23,0,.34H4V5.45A.47.47,0,0,1,4.42,5H6.89A4.07,4.07,0,0,1,6.94,5.58Z"/><path class="cls-1" d="M16.8.49V2H10.66a.78.78,0,0,0-.77.78v.78H15.3V5H9.89V8.9H8.4V2.77A2.27,2.27,0,0,1,10.66.49Z"/><path class="cls-1" d="M25.07,4.7A4.21,4.21,0,1,1,20.87.5,4.2,4.2,0,0,1,25.07,4.7Zm-1.5,0a2.71,2.71,0,1,0-2.7,2.7A2.71,2.71,0,0,0,23.57,4.7Z"/><path class="cls-1" d="M33.93.06V8.9H32.65V3.15L30.91,4.89l-.41.42L30,5.8,27.3,3.09h0L26,1.81V0l4,4ZM26,2.71,27.3,4V8.9H26Z"/><path class="cls-1" d="M43.29,4.7A4.21,4.21,0,1,1,39.09.5,4.2,4.2,0,0,1,43.29,4.7Zm-1.5,0a2.71,2.71,0,1,0-2.7,2.7A2.71,2.71,0,0,0,41.79,4.7Z"/><path class="cls-1" d="M51.7,7.4V8.9H43.3l1.16-1.5,2.07-2.69.95-1.22L48.63,2H43.28V.5h8.4L50.52,2l-2.1,2.71-.94,1.23L46.36,7.4Z"/><path class="cls-1" d="M52.9,8.9V.5h1.5V8.9Z"/></g></g></svg>