<svg xmlns="http://www.w3.org/2000/svg" viewBox="0 0 167.65 27.46"><defs><style>.cls-1{fill:#b3b3b3;}.cls-2{fill:#333;}.cls-3{fill:#242020;}</style></defs><g id="Layer_2" data-name="Layer 2"><g id="Layer_1-2" data-name="Layer 1"><path class="cls-1" d="M20.47,12.48H13.63a4.3,4.3,0,0,0-4.29,4.3V27.44A10.69,10.69,0,0,1,0,16.84c0-7,6.32-12,10.69-16.78C14.3,3.58,18.63,7.67,20.47,12.48Z"/><path class="cls-1" d="M21,21.08a10.11,10.11,0,0,1-8.52,6.36V21.08Z"/><path class="cls-2" d="M21.39,17.2c0,.36,0,.71-.05,1.05H12.17V16.78a1.47,1.47,0,0,1,1.46-1.47h7.61A11.85,11.85,0,0,1,21.39,17.2Z"/><path class="cls-3" d="M51.79,1.52V6.14H32.87A2.39,2.39,0,0,0,30.5,8.53v2.4H47.17v4.62H30.48V27.43h-4.6V8.53a7,7,0,0,1,7-7Z"/><path class="cls-3" d="M77.27,14.48a13,13,0,1,1-13-12.95A13,13,0,0,1,77.27,14.48Zm-4.62,0a8.34,8.34,0,1,0-8.34,8.34A8.35,8.35,0,0,0,72.65,14.48Z"/><path class="cls-3" d="M104.59.19V27.44h-4V9.71l-5.36,5.37L94,16.36l-1.5,1.5L84.15,9.52h0l-4-3.94V0L92.49,12.29ZM80.2,8.36l4,4V27.44h-4Z"/><path class="cls-3" d="M133.43,14.48a13,13,0,1,1-13-12.95A13,13,0,0,1,133.43,14.48Zm-4.62,0a8.34,8.34,0,1,0-8.34,8.34A8.35,8.35,0,0,0,128.81,14.48Z"/><path class="cls-3" d="M159.33,22.8v4.62h-20l0,0h-5.84l0,0L137,22.8l6.37-8.27,2.92-3.77,3.54-4.59H133.4V1.54h20v0h5.82v0l-3.59,4.63-6.45,8.36-2.91,3.77-3.46,4.5Z"/><path class="cls-3" d="M163,27.44V1.53h4.62V27.44Z"/></g></g></svg>